<svg width="1351" height="1351" viewBox="0 0 1351 1351" fill="none" xmlns="http://www.w3.org/2000/svg">
<g clip-path="url(#clip0)">
<rect width="1351" height="1351" fill="white"/>
<circle cx="1234" cy="1115" r="506" fill="#FED958" fill-opacity="0.1"/>
<path d="M352.003 568.64C383.086 568.64 409.03 560.869 429.835 545.328C450.766 529.661 465.43 508.605 473.827 482.16L428.143 469.564C422.879 487.111 413.918 500.897 401.259 510.924C388.601 520.951 372.182 525.964 352.003 525.964C324.806 525.964 304.314 517.003 290.527 499.08C276.866 481.032 270.035 457.219 270.035 427.64C270.161 398.061 277.054 374.311 290.715 356.388C304.377 338.34 324.806 329.316 352.003 329.316C372.182 329.316 388.601 334.329 401.259 344.356C413.918 354.383 422.879 368.169 428.143 385.716L473.827 373.12C465.43 346.549 450.766 325.493 429.835 309.952C409.03 294.411 383.086 286.64 352.003 286.64C325.057 286.64 301.87 292.593 282.443 304.5C263.142 316.281 248.29 332.763 237.887 353.944C227.61 375 222.471 399.565 222.471 427.64C222.471 455.589 227.61 480.155 237.887 501.336C248.29 522.517 263.142 539.061 282.443 550.968C301.87 562.749 325.057 568.64 352.003 568.64ZM217.059 1077H263.683L282.107 1018.34H388.891L407.503 1077H454.127L368.775 806.28H302.411L217.059 1077ZM295.455 976.044L335.123 850.084L375.355 976.044H295.455ZM542.261 1082.64C556.8 1082.64 570.022 1079.69 581.929 1073.8C593.836 1067.91 603.486 1058.51 610.881 1045.6C616.02 1036.71 618.777 1028.12 619.153 1019.85C619.654 1011.45 619.905 1000.99 619.905 988.452V806.28H574.033V988.452C574.033 995.847 573.845 1002.36 573.469 1008C573.218 1013.52 572.216 1018.28 570.461 1022.29C567.578 1028.56 563.192 1033.13 557.301 1036.02C551.41 1038.77 545.833 1040.15 540.569 1040.15C532.548 1040.15 525.216 1037.39 518.573 1031.88C511.93 1026.37 507.92 1019.79 506.541 1012.14L461.797 1022.86C467.312 1041.03 476.9 1055.57 490.561 1066.47C504.222 1077.25 521.456 1082.64 542.261 1082.64ZM650.34 1077H696.964L715.388 1018.34H822.172L840.784 1077H887.408L802.056 806.28H735.692L650.34 1077ZM728.736 976.044L768.404 850.084L808.636 976.044H728.736ZM898.838 1077H954.674L1018.59 978.676L1082.33 1077H1137.79L1046.42 940.136L1135.53 806.28H1079.69L1018.59 901.596L956.93 806.28H901.47L990.582 940.136L898.838 1077Z" fill="black"/>
<path d="M583.537 292.28H629.033L556.841 563H511.345L583.537 292.28ZM677.769 563H723.077V468.436H789.629C792.136 468.436 795.457 468.311 799.593 468.06C803.855 467.809 807.74 467.433 811.249 466.932C834.561 463.297 851.857 453.584 863.137 437.792C874.543 421.875 880.245 402.761 880.245 380.452C880.245 358.017 874.605 338.904 863.325 323.112C852.171 307.195 834.812 297.419 811.249 293.784C807.74 293.157 803.917 292.781 799.781 292.656C795.645 292.405 792.261 292.28 789.629 292.28H677.769V563ZM723.077 426.136V334.768H787.749C790.256 334.768 793.076 334.893 796.209 335.144C799.343 335.395 802.225 335.833 804.857 336.46C812.377 338.34 818.268 341.724 822.529 346.612C826.916 351.375 829.987 356.764 831.741 362.78C833.621 368.796 834.561 374.687 834.561 380.452C834.561 386.217 833.621 392.108 831.741 398.124C829.987 404.14 826.916 409.529 822.529 414.292C818.268 419.055 812.377 422.376 804.857 424.256C802.225 425.008 799.343 425.509 796.209 425.76C793.076 426.011 790.256 426.136 787.749 426.136H723.077ZM917.91 563H963.218V468.436H1027.51L1073.39 563H1124.71L1074.7 460.352C1090.12 453.459 1101.59 442.993 1109.11 428.956C1116.63 414.919 1120.39 398.751 1120.39 380.452C1120.39 358.017 1114.75 338.904 1103.47 323.112C1092.31 307.195 1074.95 297.419 1051.39 293.784C1047.88 293.157 1044.06 292.781 1039.92 292.656C1035.79 292.405 1032.4 292.28 1029.77 292.28H917.91V563ZM963.218 426.136V334.768H1027.89C1030.4 334.768 1033.22 334.893 1036.35 335.144C1039.48 335.395 1042.37 335.833 1045 336.46C1052.52 338.34 1058.41 341.724 1062.67 346.612C1067.06 351.375 1070.13 356.764 1071.88 362.78C1073.76 368.796 1074.7 374.687 1074.7 380.452C1074.7 386.217 1073.76 392.108 1071.88 398.124C1070.13 404.14 1067.06 409.529 1062.67 414.292C1058.41 419.055 1052.52 422.376 1045 424.256C1042.37 425.008 1039.48 425.509 1036.35 425.76C1033.22 426.011 1030.4 426.136 1027.89 426.136H963.218Z" fill="#D9D9D9"/>
<path d="M1007.71 1146.19C1018.49 1146.19 1028.31 1144 1037.14 1139.63C1045.98 1135.26 1053.14 1128.28 1058.62 1118.7C1062.44 1112.1 1064.48 1105.73 1064.76 1099.59C1065.13 1093.36 1065.32 1085.6 1065.32 1076.3V941.12H1031.28V1076.3C1031.28 1081.78 1031.14 1086.62 1030.86 1090.8C1030.68 1094.9 1029.93 1098.43 1028.63 1101.41C1026.49 1106.06 1023.24 1109.45 1018.87 1111.59C1014.5 1113.63 1010.36 1114.66 1006.45 1114.66C1000.5 1114.66 995.058 1112.61 990.129 1108.52C985.2 1104.43 982.224 1099.55 981.201 1093.87L948 1101.82C952.092 1115.31 959.207 1126.1 969.344 1134.19C979.481 1142.19 992.268 1146.19 1007.71 1146.19ZM1181.66 1146.19C1195.42 1146.19 1208.3 1143.86 1220.3 1139.21C1232.29 1134.56 1241.97 1127.58 1249.31 1118.28C1256.75 1108.98 1260.47 1097.41 1260.47 1083.55C1260.47 1073.6 1258.61 1065.37 1254.89 1058.86C1251.27 1052.25 1246.57 1046.95 1240.8 1042.95C1235.13 1038.96 1229.23 1035.84 1223.09 1033.61C1217.04 1031.38 1211.56 1029.61 1206.63 1028.31L1170.64 1018.26C1166.17 1017.05 1161.71 1015.57 1157.24 1013.8C1152.78 1011.94 1149.06 1009.47 1146.08 1006.41C1143.11 1003.24 1141.62 999.198 1141.62 994.269C1141.62 989.061 1143.34 984.504 1146.78 980.598C1150.31 976.692 1154.92 973.67 1160.59 971.531C1166.36 969.392 1172.59 968.415 1179.28 968.601C1189.61 968.88 1198.91 971.903 1207.18 977.669C1215.46 983.435 1220.67 991.619 1222.81 1002.22L1258.94 995.943C1254.47 977.343 1245.31 962.975 1231.46 952.838C1217.6 942.608 1200.35 937.4 1179.7 937.214C1166.12 937.121 1153.76 939.306 1142.6 943.77C1131.53 948.141 1122.69 954.698 1116.09 963.44C1109.58 972.182 1106.33 983.016 1106.33 995.943C1106.33 1004.78 1107.77 1012.22 1110.65 1018.26C1113.63 1024.22 1117.39 1029.1 1121.95 1032.91C1126.6 1036.72 1131.48 1039.75 1136.6 1041.98C1141.81 1044.21 1146.64 1045.98 1151.11 1047.28L1203 1062.62C1217.88 1067.09 1225.32 1074.81 1225.32 1085.78C1225.32 1091.92 1223.32 1097.17 1219.32 1101.54C1215.41 1105.82 1210.3 1109.08 1203.98 1111.31C1197.65 1113.54 1190.91 1114.66 1183.75 1114.66C1171.66 1114.66 1160.96 1111.4 1151.66 1104.89C1142.46 1098.38 1136.36 1089.18 1133.39 1077.27L1098.51 1082.57C1100.65 1095.69 1105.49 1107.03 1113.02 1116.61C1120.65 1126.1 1130.32 1133.4 1142.04 1138.51C1153.85 1143.63 1167.05 1146.19 1181.66 1146.19Z" fill="#FED958"/>
</g>
<defs>
<clipPath id="clip0">
<rect width="1351" height="1351" fill="white"/>
</clipPath>
</defs>
</svg>